{
  "accessors": [
    {
      "bufferView": 2,
      "componentType": 5126,
      "count": 4255,
      "max": [
        4.138800144195557,
        18.535409927368164,
        7.986000061035156
      ],
      "min": [
        -5.860139846801758,
        -18.691200256347656,
        -8.579999923706055
      ],
      "type": "VEC3"
    },
    {
      "bufferView": 2,
      "byteOffset": 51060,
      "componentType": 5126,
      "count": 4255,
      "max": [
        1.0,
        1.0,
        1.0
      ],
      "min": [
        -1.0,
        -1.0,
        -1.0
      ],
      "type": "VEC3"
    },
    {
      "bufferView": 1,
      "componentType": 5126,
      "count": 4255,
      "max": [
        0.9988300204277039,
        0.9943100214004517
      ],
      "min": [
        0.004000000189989805,
        0.001120000029914081
      ],
      "type": "VEC2"
    },
    {
      "bufferView": 0,
      "componentType": 5125,
      "count": 12279,
      "type": "SCALAR"
    },
    {
      "bufferView": 2,
      "byteOffset": 102120,
      "componentType": 5126,
      "count": 28,
      "max": [
        1.6367900371551514,
        15.611820220947266,
        4.0142998695373535
      ],
      "min": [
        -5.202300071716309,
        4.719689846038818,
        -3.61680006980896
      ],
      "type": "VEC3"
    },
    {
      "bufferView": 2,
      "byteOffset": 102456,
      "componentType": 5126,
      "count": 28,
      "max": [
        0.0,
        1.0,
        0.0
      ],
      "min": [
        0.0,
        -1.0,
        0.0
      ],
      "type": "VEC3"
    },
    {
      "bufferView": 1,
      "byteOffset": 34040,
      "componentType": 5126,
      "count": 28,
      "max": [
        0.9907000064849854,
        0.992609977722168
      ],
      "min": [
        0.008139999583363533,
        0.010049999691545963
      ],
      "type": "VEC2"
    },
    {
      "bufferView": 0,
      "byteOffset": 49116,
      "componentType": 5125,
      "count": 72,
      "type": "SCALAR"
    }
  ],
  "asset": {
    "extras": {
      "author": "maxdragonn (https://sketchfab.com/maxdragon)",
      "license": "CC-BY-4.0 (http://creativecommons.org/licenses/by/4.0/)",
      "source": "https://sketchfab.com/3d-models/1982-sony-betacam-2278728ec0a2456b8793210d24f4dd79",
      "title": "1982 Sony Betacam"
    },
    "generator": "Sketchfab-10.51.0",
    "version": "2.0"
  },
  "bufferViews": [
    {
      "buffer": 0,
      "byteLength": 49404,
      "name": "floatBufferViews",
      "target": 34963
    },
    {
      "buffer": 0,
      "byteLength": 34264,
      "byteOffset": 49404,
      "byteStride": 8,
      "name": "floatBufferViews",
      "target": 34962
    },
    {
      "buffer": 0,
      "byteLength": 102792,
      "byteOffset": 83668,
      "byteStride": 12,
      "name": "floatBufferViews",
      "target": 34962
    }
  ],
  "buffers": [
    {
      "byteLength": 186460,
      "uri": "scene.bin"
    }
  ],
  "images": [
    {
      "uri": "textures/camcorder_baseColor.png"
    },
    {
      "uri": "textures/cam_lens_baseColor.png"
    }
  ],
  "materials": [
    {
      "doubleSided": true,
      "name": "camcorder",
      "pbrMetallicRoughness": {
        "baseColorTexture": {
          "index": 0
        },
        "metallicFactor": 0.0,
        "roughnessFactor": 0.6279678845253513
      }
    },
    {
      "doubleSided": true,
      "name": "cam_lens",
      "pbrMetallicRoughness": {
        "baseColorTexture": {
          "index": 1
        },
        "metallicFactor": 0.0,
        "roughnessFactor": 0.0
      }
    }
  ],
  "meshes": [
    {
      "name": "camcorder_0",
      "primitives": [
        {
          "attributes": {
            "NORMAL": 1,
            "POSITION": 0,
            "TEXCOORD_0": 2
          },
          "indices": 3,
          "material": 0,
          "mode": 4
        }
      ]
    },
    {
      "name": "camcorder_1",
      "primitives": [
        {
          "attributes": {
            "NORMAL": 5,
            "POSITION": 4,
            "TEXCOORD_0": 6
          },
          "indices": 7,
          "material": 1,
          "mode": 4
        }
      ]
    }
  ],
  "nodes": [
    {
      "children": [
        1
      ],
      "matrix": [
        1.0,
        0.0,
        0.0,
        0.0,
        0.0,
        2.220446049250313e-16,
        -1.0,
        0.0,
        0.0,
        1.0,
        2.220446049250313e-16,
        0.0,
        0.0,
        0.0,
        0.0,
        1.0
      ],
      "name": "Sketchfab_model"
    },
    {
      "children": [
        2,
        4
      ],
      "name": "Root"
    },
    {
      "children": [
        3
      ],
      "matrix": [
        -0.29086000000000006,
        0.9551700000000001,
        -0.05519000000000001,
        0.0,
        -0.7711,
        -0.19988000000000003,
        0.6045200000000001,
        0.0,
        0.5663900000000001,
        0.21839000000000003,
        0.7946700000000001,
        0.0,
        4.076250000000001,
        1.00545,
        5.903860000000001,
        1.0
      ],
      "name": "Lamp"
    },
    {
      "name": "Lamp"
    },
    {
      "children": [
        5,
        6
      ],
      "name": "camcorder"
    },
    {
      "mesh": 0,
      "name": "camcorder_0"
    },
    {
      "mesh": 1,
      "name": "camcorder_1"
    }
  ],
  "samplers": [
    {
      "magFilter": 9729,
      "minFilter": 9987,
      "wrapS": 10497,
      "wrapT": 10497
    }
  ],
  "scene": 0,
  "scenes": [
    {
      "name": "Sketchfab_Scene",
      "nodes": [
        0
      ]
    }
  ],
  "textures": [
    {
      "sampler": 0,
      "source": 0
    },
    {
      "sampler": 0,
      "source": 1
    }
  ]
}
